<?xml version="1.0" standalone="no"?><!DOCTYPE svg PUBLIC "-//W3C//DTD SVG 1.1//EN" "http://www.w3.org/Graphics/SVG/1.1/DTD/svg11.dtd"><svg t="1637034697691" class="icon" viewBox="0 0 1024 1024" version="1.1" xmlns="http://www.w3.org/2000/svg" p-id="6753" xmlns:xlink="http://www.w3.org/1999/xlink" width="64" height="64"><defs><style type="text/css"></style></defs><path d="M148.092928 368.67072c0-0.321536-0.079872-0.64512-0.161792-0.966656 0.079872 0.321536 0.161792 0.643072 0.161792 0.966656zM232.275968 404.6336c0-0.241664-0.079872-0.483328-0.079872-0.724992 0 0.241664 0.079872 0.483328 0.079872 0.724992zM148.011008 367.622144v0.079872-0.079872z" p-id="6754"></path><path d="M910.338048 374.39488l14.675968-0.321536v-71.282688c0-33.222656-27.01312-60.233728-60.233728-60.233728H299.767808c-33.222656 0-60.233728 27.01312-60.233728 60.233728v72.087552l15.48288-0.483328c0.483328 0 0.966656-0.079872 1.452032-0.079872 18.061312 0 34.75456 7.983104 46.204928 21.127168H159.219712c-33.222656 0-60.233728 27.01312-60.233728 60.233728v72.00768l15.40096-0.323584c0.565248 0 1.048576-0.079872 1.531904-0.079872 33.867776 0 61.364224 27.57632 61.364224 61.364224 0 33.867776-27.496448 61.364224-61.364224 61.364224-0.483328 0-1.048576-0.079872-1.531904-0.079872l-15.40096-0.321536v71.604224c0 33.222656 27.01312 60.233728 60.233728 60.233728h565.01248c33.222656 0 60.233728-27.01312 60.233728-60.233728v-70.959104l-14.675968-0.323584c-17.577984-0.403456-33.867776-8.466432-44.99456-21.368832h139.902976c33.222656 0 60.233728-27.01312 60.233728-60.233728v-70.959104l-14.675968-0.321536c-33.544192-0.806912-59.912192-27.738112-59.912192-61.282304s26.44992-60.561408 59.994112-61.36832z m-155.949056 304.0768v42.737664c0 16.611328-13.54752 30.1568-30.1568 30.1568H159.219712c-16.611328 0-30.1568-13.54752-30.1568-30.1568V679.19872c44.269568-6.4512 78.37696-44.591104 78.37696-90.554368s-34.10944-84.18304-78.37696-90.554368v-42.41408c0-16.611328 13.54752-30.1568 30.1568-30.1568h157.642752a63.934464 63.934464 0 0 0-2.58048-10.080256l3.547136 10.080256h406.480896c16.611328 0 30.1568 13.54752 30.1568 30.1568v43.0592c-42.817536 7.903232-74.58816 44.914688-74.58816 89.909248 0 2.256896 0.079872 4.43392 0.323584 6.692864 0 0.483328 0.079872 1.048576 0.161792 1.531904 0.079872 0.483328 0.161792 1.048576 0.161792 1.531904a90.632192 90.632192 0 0 0 4.43392 19.996672l3.467264 10.160128h0.724992c12.582912 25.964544 37.015552 44.591104 65.236992 49.913856z m140.548096-152.803328v42.655744c0 16.611328-13.54752 30.1568-30.1568 30.1568h-154.013696c-0.161792-1.128448-0.323584-2.256896-0.403456-3.467264-0.079872-0.483328-0.161792-0.886784-0.161792-1.370112a51.699712 51.699712 0 0 1-0.241664-4.999168c0-33.544192 26.288128-60.47744 59.912192-61.282304l14.675968-0.323584v-71.282688c0-33.222656-27.01312-60.233728-60.233728-60.233728H338.55488c-13.305856-27.092992-39.18848-45.961216-68.943872-50.235392v-42.41408c0-16.611328 13.54752-30.1568 30.1568-30.1568h565.01248c16.611328 0 30.1568 13.54752 30.1568 30.1568v43.0592c-42.817536 7.821312-74.58816 44.914688-74.58816 89.909248s31.770624 81.924096 74.58816 89.827328z" p-id="6755"></path><path d="M493.37344 561.46944v-67.653632h-20.56192v181.671936h20.56192v-108.695552c9.111552 8.628224 21.045248 21.286912 35.721216 37.98016 1.531904 1.531904 2.742272 2.822144 3.790848 3.790848l15.966208-15.239168c-15.239168-15.239168-29.673472-29.351936-43.300864-42.575872l-12.177408 10.72128zM424.994816 519.70048c-2.015232-3.063808-5.07904-7.579648-9.111552-13.707264-3.063808-5.564416-5.564416-9.59488-7.579648-12.17536l-18.223104 7.579648c6.047744 9.111552 11.370496 18.223104 15.966208 27.334656l18.948096-9.03168zM458.457088 578.24256l-13.707264-11.370496c-6.612992 8.628224-14.19264 17.256448-22.818816 25.884672l-7.579648-4.595712v-6.047744c7.579648-9.59488 15.239168-20.803584 22.818816-33.46432v-18.223104h-66.926592v19.030016h44.832768c-11.692032 19.755008-28.86656 37.25312-51.687424 52.494336 0.966656 4.595712 2.742272 9.918464 5.322752 15.966208 0.483328 2.58048 0.966656 4.274176 1.531904 5.322752 9.111552-6.047744 17.256448-12.9024 24.352768-20.56192v72.974336h19.755008v-66.926592a464.859136 464.859136 0 0 1 31.205376 24.352768l12.17536-15.239168-22.818816-15.966208a594.24768 594.24768 0 0 0 23.543808-23.629824z" p-id="6756"></path></svg>