<?xml version="1.0" standalone="no"?>
<!DOCTYPE svg PUBLIC "-//W3C//DTD SVG 1.1//EN" "http://www.w3.org/Graphics/SVG/1.1/DTD/svg11.dtd">
<svg class="icon" viewBox="0 0 1024 1024" xmlns="http://www.w3.org/2000/svg" p-id="4393" xmlns:xlink="http://www.w3.org/1999/xlink" width="64" height="64">
  <path d="M512 254.348387h128.825806v42.941936h-128.825806zM469.058065 379.870968h343.535483v42.941935h-343.535483z"></path>
  <path d="M125.522581 42.941935h601.187096v42.941936h42.941936v-42.941936s0-42.941935-42.941936-42.941935h-601.187096c-42.941935 0-42.941935 42.941935-42.941936 42.941935v759.741936s0 42.941935 42.941936 42.941935h42.941935v-42.941935h-42.941935v-759.741936z" p-id="4395"></path>
  <path d="M898.477419 125.522581h-644.129032c-42.941935 0-42.941935 42.941935-42.941935 42.941935v799.380645s0 42.941935 42.941935 42.941936h386.477419l300.593549-293.987097v-548.335484s0-42.941935-42.941936-42.941935z m-257.651613 842.32258v-254.348387h257.651613l-257.651613 254.348387z m0-293.987096c-42.941935 0-42.941935 42.941935-42.941935 42.941935v254.348387h-343.535484v-799.380645h644.129032v505.393548h-257.651613z"></path>
  <path d="M469.058065 505.393548h343.535483v42.941936h-343.535483zM340.232258 505.393548h85.883871v42.941936h-85.883871zM340.232258 379.870968h85.883871v42.941935h-85.883871z" p-id="4397"></path>
</svg>