<?xml version="1.0" encoding="UTF-8"?>
<svg width="40px" height="30px" viewBox="0 0 40 30" version="1.1" xmlns="http://www.w3.org/2000/svg" xmlns:xlink="http://www.w3.org/1999/xlink">
    <g id="营销小助手" stroke-width="1">
        <g id="抢单" transform="translate(-30.000000, -216.000000)">
            <g id="客户信息" transform="translate(30.000000, 216.000000)">
                <path d="M36.1765327,0.0241527048 L3.7028621,0.0241527048 C2.06158285,0.0241527048 0.726413329,1.3593652 0.726413329,3.00060148 L0.726413329,26.9168637 C0.726413329,28.5574984 2.06158285,29.8927109 3.7028621,29.8927109 L36.1765757,29.8927109 C37.817812,29.8927109 39.1524659,28.5574984 39.1524659,26.9168637 L39.1524659,3.00064445 C39.1524229,1.3593652 37.8178549,0.0241956736 36.1765327,0.0241956736 L36.1765327,0.0241527048 Z M36.7463849,26.9169067 C36.7463849,27.2311375 36.4902909,27.4866729 36.1766186,27.4866729 L3.70281914,27.4866729 C3.38794377,27.4866729 3.13305285,27.2311375 3.13305285,26.9169067 L3.13305285,3.00064445 C3.13305285,2.68641362 3.38798674,2.4302766 3.70281914,2.4302766 L36.1765757,2.4302766 C36.4902479,2.4302766 36.746342,2.68637065 36.746342,3.00064445 L36.746342,26.9169067 L36.7463849,26.9169067 Z M22.0303014,19.0765616 L17.5964798,16.8607895 L18.7431452,15.1925688 C18.8807614,14.9919711 18.9544731,14.7544331 18.9545947,14.5111695 L18.9545947,10.9895756 C18.9545947,8.37492409 16.8645923,6.3266014 14.1964876,6.3266014 C11.5295861,6.3266014 9.43958366,8.37492409 9.43958366,10.9895756 L9.43958366,14.5111695 L9.43958365,14.511115 C9.43958369,14.7609176 9.51715093,15.0045558 9.66157208,15.2083783 L10.8305383,16.8508177 L6.20284149,19.067707 C5.78503827,19.2675489 5.5190962,19.68953 5.51907902,20.1526692 L5.51907902,22.3878203 C5.51907902,23.0522039 6.05713433,23.5908607 6.72211948,23.5908607 L21.4922148,23.5908607 C22.157157,23.5908607 22.6952553,23.0522039 22.6952553,22.3878203 L22.6952553,20.1526692 L22.6952553,20.1524484 C22.6952553,19.6967256 22.4377261,19.2801345 22.0300725,19.0764152 L22.0303014,19.0765616 Z M20.2892056,21.1848258 L7.92514827,21.1848258 L7.92514827,20.9105129 L13.1578887,18.4034124 C13.4783135,18.250584 13.7145151,17.963588 13.8028504,17.6197474 C13.8921813,17.2761504 13.8251028,16.9106376 13.6195885,16.6211525 L11.8455786,14.1269855 L11.8455786,10.9895756 C11.8455786,9.72427333 12.8782907,8.73268233 14.1964016,8.73268233 C15.5157157,8.73268233 16.5484278,9.72427333 16.5484278,10.9895756 L16.5484278,14.1375558 L14.8296329,16.6370509 C14.6322557,16.9238336 14.5688415,17.2820769 14.6557812,17.6191887 C14.7430289,17.9561664 14.9717909,18.2389235 15.2831257,18.3946037 L20.2891198,20.8964191 L20.2892056,21.1848258 Z M25.3810084,16.5224961 L30.2694829,16.5224961 C30.934425,16.5224961 31.4725663,15.9837963 31.4725663,15.3194127 C31.4725663,14.6550721 30.934468,14.1163722 30.2694829,14.1163722 L25.3810084,14.1163722 C24.7160662,14.1163722 24.177968,14.6550721 24.177968,15.3194127 C24.177968,15.9837963 24.7160233,16.5224961 25.3810084,16.5224961 Z M33.0362009,9.01640536 L25.3810084,9.01640536 C24.7160662,9.01640536 24.177968,9.5551052 24.177968,10.2194888 C24.177968,10.8838294 24.7160233,11.4225292 25.3810084,11.4225292 L33.0362439,11.4225292 C33.7011861,11.4225292 34.2393273,10.8838294 34.2393273,10.2194888 C34.2393273,9.5551052 33.7011861,9.01640536 33.0362439,9.01640536 L33.0362009,9.01640536 Z M33.0362009,19.5700153 L25.3810084,19.5700153 C24.7160662,19.5700153 24.177968,20.1087151 24.177968,20.7730558 C24.177968,21.4374393 24.7160233,21.9760962 25.3810084,21.9760962 L33.0362439,21.9760962 C33.7011861,21.9760962 34.2393273,21.4374393 34.2393273,20.7730558 C34.2393273,20.1087151 33.7011861,19.5700153 33.0362439,19.5700153 L33.0362009,19.5700153 Z" id="形状"></path>
            </g>
        </g>
    </g>
</svg>