<?xml version="1.0" standalone="no"?><!DOCTYPE svg PUBLIC "-//W3C//DTD SVG 1.1//EN" "http://www.w3.org/Graphics/SVG/1.1/DTD/svg11.dtd"><svg t="1637034680134" class="icon" viewBox="0 0 1024 1024" version="1.1" xmlns="http://www.w3.org/2000/svg" p-id="6209" xmlns:xlink="http://www.w3.org/1999/xlink" width="64" height="64"><defs><style type="text/css"></style></defs><path d="M821.723136 232.667136l-2.87744-15.171584-15.368192 1.374208c-89.264128 8.108032-236.990464-28.7744-274.3296-38.647808l-15.302656-3.008512-2.484224 0.653312c-1.896448 0.52224-188.336128 50.354176-290.809856 41.003008l-15.368192-1.374208-2.87744 15.171584c-0.915456 4.970496-22.626304 122.550272 2.942976 257.261568 34.267136 180.619264 137.981952 303.429632 299.89888 355.223552l5.101568 1.634304h1.765376l9.875456-3.334144c160.151552-52.31616 262.81984-174.667776 296.890368-353.849344 25.503744-134.582272 3.858432-251.96544 2.942976-256.935936z m-36.5568 251.441152c-31.8464 165.906432-121.894912 275.17952-267.593728 324.880384l-0.065536-0.065536-6.801408 2.093056-5.492736-1.69984c-145.045504-50.026496-234.635264-159.236096-266.35264-324.814848-19.48672-101.623808-10.266624-195.39968-5.4272-230.711296 101.361664 3.858432 253.534208-34.398208 282.243072-41.852928 28.053504 7.651328 174.211072 45.776896 274.917376 41.852928 4.775936 35.248128 13.996032 128.892928-5.4272 230.31808z" p-id="6210"></path><path d="M419.15392 341.876736c-12.228608 46.56128-29.427712 89.329664-51.531776 128.239616 0.718848 4.57728 1.896448 11.835392 3.465216 21.776384 1.503232 6.866944 2.680832 12.621824 3.39968 17.199104a806.06208 806.06208 0 0 0 25.176064-37.797888v143.149056h28.643328v-202.723328c8.370176-19.8144 15.23712-40.47872 20.598784-61.863936l-29.751296-7.979008zM576.034816 512.489472h68.728832v-27.465728H558.83776v-32.043008h65.329152V353.32096h-160.34816v99.596288h64.151552v32.043008h-87.04v27.465728h68.728832c-17.590272 25.176064-42.768384 46.56128-75.595776 64.151552 4.57728 3.858432 10.65984 11.444224 18.311168 22.888448 32.827392-17.524736 58.005504-41.984 75.595776-73.30816v88.152064h30.930944v-89.198592c13.73184 28.250112 37.797888 51.922944 72.13056 71.018496a807.97696 807.97696 0 0 0 8.044544-12.621824c3.792896-6.08256 6.473728-10.33216 8.042496-12.621824-33.677312-16.019456-57.350144-35.508224-71.084032-58.396672z m-82.460672-85.8624v-45.776896h101.883904v45.776896h-101.883904z" p-id="6211"></path></svg>