<?xml version="1.0" standalone="no"?><!DOCTYPE svg PUBLIC "-//W3C//DTD SVG 1.1//EN" "http://www.w3.org/Graphics/SVG/1.1/DTD/svg11.dtd"><svg t="1637034700988" class="icon" viewBox="0 0 1024 1024" version="1.1" xmlns="http://www.w3.org/2000/svg" p-id="6883" xmlns:xlink="http://www.w3.org/1999/xlink" width="64" height="64"><defs><style type="text/css"></style></defs><path d="M782.567424 224.438272H241.432576c-34.121728 0-61.861888 27.74016-61.861888 61.861888v451.39968c0 34.121728 27.74016 61.861888 61.861888 61.861888h541.1328c34.121728 0 61.861888-27.74016 61.861888-61.861888v-451.39968c-0.063488-34.121728-27.803648-61.861888-61.85984-61.861888z m30.930944 513.261568c0 17.061888-13.871104 30.930944-30.930944 30.930944H241.432576c-17.061888 0-30.930944-13.871104-30.930944-30.930944v-451.39968c0-17.061888 13.871104-30.930944 30.930944-30.930944h541.1328c17.061888 0 30.930944 13.871104 30.930944 30.930944v451.39968z" p-id="6884"></path><path d="M360.665088 512m-37.70368 0a37.70368 37.70368 0 1 0 75.40736 0 37.70368 37.70368 0 1 0-75.40736 0Z" p-id="6885"></path><path d="M513.171456 512m-37.70368 0a37.70368 37.70368 0 1 0 75.40736 0 37.70368 37.70368 0 1 0-75.40736 0Z" p-id="6886"></path><path d="M665.614336 512m-37.70368 0a37.70368 37.70368 0 1 0 75.40736 0 37.70368 37.70368 0 1 0-75.40736 0Z" p-id="6887"></path></svg>