<?xml version="1.0" standalone="no"?><!DOCTYPE svg PUBLIC "-//W3C//DTD SVG 1.1//EN" "http://www.w3.org/Graphics/SVG/1.1/DTD/svg11.dtd"><svg t="1637034676274" class="icon" viewBox="0 0 1883 1024" version="1.1" xmlns="http://www.w3.org/2000/svg" p-id="6078" xmlns:xlink="http://www.w3.org/1999/xlink" width="117.6875" height="64"><defs><style type="text/css"></style></defs><path d="M1218.108361 277.786179l28.736501-6.385889 63.858892 280.979124c-9.578834 4.789417-20.75414 7.982361-30.332973 12.771778l15.964723 28.736502c39.911807-17.561195 78.227142-35.12239 113.349533-54.280058l17.561195 79.823615 31.929446-7.982362-20.75414-87.805976c9.578834-4.789417 19.157668-11.175306 27.140029-15.964723l-7.982362-31.929446-27.140029 15.964723-57.473002-250.64615 23.947084-6.38589-6.385889-30.332973-180.401369 41.508279 7.982361 31.929446z m185.190786 229.892011c-20.75414 11.175306-39.911807 20.75414-60.665947 30.332973l-19.157667-81.420087 65.455364-14.36825 14.36825 65.455364z m-22.350612-95.788338l-65.455364 14.368251-14.36825-65.455364 65.455364-14.368251 14.36825 65.455364z m-38.315335-162.840174l15.964723 67.051836-65.455364 14.368251-15.964723-67.051836 65.455364-14.368251zM1414.474453 207.541398l49.490642 215.52376 191.576675-44.701224-49.490641-215.52376-191.576676 44.701224z m75.034198 175.611953l-35.12239-153.261341 127.717783-30.332973 35.122391 153.26134-127.717784 30.332974zM846.130316 502.888773c33.525918-20.75414 59.069475-41.50828 79.823615-60.665947 25.543557 6.385889 49.490641 14.368251 75.034198 23.947084l9.578834-25.543557c-20.75414-7.982361-41.50828-14.368251-63.858892-19.157667 12.771778-14.368251 25.543557-30.332974 38.315335-49.490641l-27.140029-7.982362c-12.771778 17.561195-25.543557 35.12239-41.50828 51.087114-28.736501-6.385889-59.069475-12.771778-90.99892-15.964723l-9.578834 23.947084c25.543557 3.192945 51.087113 7.982361 76.63067 12.771779-20.75414 17.561195-43.104752 31.929446-68.648309 47.894168l22.350612 19.157668zM704.044282 413.486324l389.53924-90.99892-6.385889-30.332974-174.01548 39.911807c-7.982361-12.771778-15.964723-23.947084-23.947085-35.12239l-31.929446 12.771778c7.982361 7.982361 15.964723 17.561195 23.947085 28.736502l-183.594314 43.104752 6.385889 31.929445zM245.856733 565.151192l-31.929445 7.982362 54.280058 239.470844c7.982361 36.718863 31.929446 52.683586 68.648308 43.104752l245.856734-57.473002c19.157668-4.789417 31.929446-14.368251 39.911807-25.543557 7.982361-14.368251 7.982361-49.490641 0-106.963644l-33.525918-3.192945c9.578834 51.087113 9.578834 81.420087 3.192944 90.998921-4.789417 6.385889-14.368251 11.175306-25.543556 14.368251l-228.295538 52.683586c-20.75414 4.789417-33.525918-3.192945-38.315336-23.947085l-30.332973-134.103673 284.172068-65.455364-41.508279-181.997841-335.259182 78.227142 7.982361 31.929446 303.329736-70.244781 27.140029 119.735422-252.242622 59.069475-17.561196-68.648309z" fill="#6F8F8F" p-id="6079"></path><path d="M1096.776467 662.536002l-36.718863 6.38589 15.964723 28.736501 38.315335-9.578834c25.543557-6.385889 35.12239-22.350612 28.736501-46.297696l-31.929446-135.700145-185.190786 43.104752c1.596472-11.175306 3.192945-22.350612 3.192945-35.122391l145.278979-33.525918-28.736502-126.121311-31.929446 7.982361 22.350613 98.981282-226.699066 52.683586-22.350613-98.981282-31.929445 7.982361 28.736501 126.121312 111.753061-25.543557c-1.596472 11.175306-1.596472 23.947084-3.192945 35.12239l-129.314256 30.332974 39.911807 174.01548 31.929446-7.982361-33.525918-143.682507 86.209504-20.75414c-4.789417 28.736501-11.175306 52.683586-19.157667 73.437726-1.596472 3.192945-6.385889 6.385889-12.771779 7.982361l14.368251 27.140029c73.437726-25.543557 127.717784-46.297697 161.243702-60.665947 4.789417 6.385889 11.175306 14.368251 17.561195 22.350612l23.947084-19.157667c-23.947084-28.736501-47.894169-54.280058-71.841253-78.227143l83.016559-19.157667 22.350613 98.981282c7.982361 9.578834 3.192945 15.964723-9.578834 19.157667z m-79.823615-46.297696c-35.12239 14.368251-71.841253 28.736501-110.156588 41.50828 6.385889-22.350612 12.771778-46.297697 17.561195-75.034198l71.841253-15.964723-14.36825 12.771778c11.175306 9.578834 22.350612 22.350612 35.12239 36.718863zM1695.453577 555.572359l22.350613-25.543557c-25.543557-33.525918-60.665947-71.841253-103.7707-116.542478l-22.350612 22.350613c43.104752 43.104752 76.63067 83.016559 103.770699 119.735422z" fill="#6F8F8F" p-id="6080"></path><path d="M1867.872585 600.273583c-6.385889-31.929446-14.368251-65.455364-20.75414-97.38481l-67.051836-277.786179c-4.789417-15.964723-3.192945-36.718863-27.140029-44.701225 6.385889-3.192945 11.175306-6.385889 15.964723-7.982361-9.578834-43.104752-19.157668-84.613032-30.332974-127.717784-1.596472-4.789417-7.982361-7.982361-11.175306-12.771778-1.596472-1.596472-3.192945-4.789417-4.789417-7.982362 3.192945 0 4.789417 0 7.982362-1.596472 0 0 1.596472-1.596472 1.596472-3.192944-3.192945-1.596472-6.385889-4.789417-11.175306-9.578834 0 6.385889-1.596472 11.175306-1.596472 15.964723-1.596472-1.596472-4.789417-3.192945-6.385889-3.192945 1.596472-4.789417 1.596472-7.982361 3.192944-14.368251-11.175306 0-20.75414 1.596472-30.332973 1.596473 3.192945 6.385889 6.385889 11.175306 7.982361 15.964723-3.192945 0-7.982361 1.596472-7.982361 1.596472-6.385889-19.157668-20.75414-11.175306-31.929446-7.982361-9.578834 1.596472-17.561195 6.385889-27.140029 7.982361-39.911807 7.982361-78.227142 15.964723-118.13895 23.947084-31.929446 6.385889-65.455364 14.368251-98.981282 22.350613 7.982361 11.175306 14.368251 19.157668 20.754139 27.140029 1.596472 1.596472 4.789417 1.596472 6.38589 1.596472v-4.789417c23.947084-3.192945 47.894169-6.385889 70.244781-11.175306 6.385889-1.596472 11.175306-4.789417 17.561195-6.385889l100.577754-19.157668c6.385889-1.596472 11.175306-6.385889 17.561196-6.385889 12.771778 1.596472 17.561195-3.192945 19.157667-14.368251-9.578834 0-19.157668-1.596472-27.140029-1.596472v-4.789417c3.192945 0 7.982361 1.596472 9.578834 0 9.578834-12.771778 19.157668-3.192945 27.140029 1.596472 9.578834 4.789417 19.157668 9.578834 30.332974 15.964723 11.175306 41.50828 25.543557 86.209504 36.718862 132.507201 11.175306 46.297697 17.561195 94.191865 28.736502 142.086034 9.578834 46.297697 20.75414 94.191865 31.929446 140.489562 11.175306 47.894169 22.350612 94.191865 33.525918 143.682507-7.982361 1.596472-12.771778 3.192945-15.964723 3.192944-76.63067 17.561195-151.664868 35.12239-228.295538 52.683586-7.982361 1.596472-14.368251 1.596472-19.157668 12.771778-3.192945 11.175306-22.350612 9.578834-28.736501-3.192944-65.455364 15.964723-130.910728 30.332974-197.962565 46.297696-170.822536 39.911807-341.645071 78.227142-512.467607 118.13895-11.175306 3.192945-20.75414 7.982361-31.929445 11.175306-6.385889 1.596472-12.771778-1.596472-19.157668 0-111.753061 25.543557-223.506121 49.490641-335.259182 75.034198-86.209504 19.157668-174.01548 39.911807-260.224984 60.665947-4.789417 1.596472-12.771778-3.192945-12.771778-6.385889-9.578834-33.525918-17.561195-67.051836-23.947085-100.577754-11.175306-51.087113-23.947084-102.174227-35.12239-153.261341l-19.157668-4.789417v-3.192944c4.789417-1.596472 11.175306-4.789417 15.964723-6.385889-3.192945-36.718863-7.982361-49.490641-19.157667-57.473003 0-12.771778 1.596472-22.350612 0-31.929446-12.771778-60.665947-27.140029-121.331894-41.50828-183.594314-1.596472-4.789417-1.596472-11.175306-3.192945-17.561195 95.788338-22.350612 189.980203-44.701224 285.768541-67.051836-14.368251-14.368251-25.543557 1.596472-39.911807-1.596473 1.596472-4.789417 3.192945-11.175306 4.789417-11.175306 15.964723 0 31.929446-14.368251 49.490641 0 6.385889 6.385889 20.75414 6.385889 31.929446 3.192945 116.542478-25.543557 234.681427-52.683586 351.223905-79.823615 6.385889-1.596472 11.175306-3.192945 20.754139-4.789417-14.368251-17.561195-27.140029-1.596472-39.911807-3.192944-3.192945-7.982361-3.192945-14.368251 7.982362-14.368251 7.982361 0 15.964723-1.596472 22.350612-3.192945 7.982361-1.596472 12.771778-3.192945 19.157667 3.192945 6.385889 6.385889 20.75414 9.578834 30.332974 6.385889 110.156588-23.947084 218.716704-49.490641 328.873293-75.034198 7.982361-1.596472 15.964723-9.578834 23.947084-11.175306 22.350612-4.789417 43.104752-6.385889 65.455364-9.578834 3.192945 0 4.789417-6.385889 7.982362-9.578833v4.789416c46.297697 0 89.402449-17.561195 137.296617-25.543556-4.789417-7.982361-7.982361-14.368251-12.771778-20.75414-7.982361-12.771778-20.75414-9.578834-33.525919-6.385889-28.736501 6.385889-57.473003 14.368251-86.209504 19.157667-27.140029 4.789417-52.683586 17.561195-81.420087 19.157668-11.175306 0-20.75414 9.578834-30.332973 12.771778-14.368251 3.192945-30.332974 1.596472-44.701224 4.789417-60.665947 12.771778-119.735422 27.140029-180.40137 41.50828-60.665947 14.368251-122.928367 27.140029-183.594314 41.508279-4.789417 1.596472-11.175306 4.789417-12.771778 7.982362-1.596472 4.789417 0 12.771778 0 19.157667-15.964723-1.596472-6.385889-12.771778-6.385889-23.947084-17.561195 6.385889-33.525918 11.175306-49.490641 15.964723-75.034198 17.561195-148.471923 33.525918-223.506122 51.087113-38.315335 7.982361-76.63067 17.561195-114.946005 27.140029-7.982361 1.596472-17.561195 1.596472-22.350612 6.38589-3.192945 3.192945 0 14.368251 1.596472 22.350612-15.964723 0-6.385889-14.368251-9.578834-22.350612-4.789417 0-7.982361 1.596472-12.771778 1.596472-25.543557 4.789417-49.490641 15.964723-76.63067 17.561195-17.561195 1.596472-36.718863 3.192945-46.297697 23.947085h-4.789417v-15.964723c-30.332974 9.578834-59.069475 19.157668-87.805976 28.736501-3.192945 1.596472-6.385889-1.596472-9.578834 0-6.385889 1.596472-14.368251 3.192945-17.561195 7.982361-3.192945 6.385889-3.192945 15.964723-3.192944 23.947085 0 3.192945 7.982361 4.789417 9.578833 7.982361 3.192945 4.789417 4.789417 12.771778 3.192945 14.368251-9.578834 7.982361-4.789417 17.561195-1.596472 27.140029 4.789417 19.157668 9.578834 39.911807 14.36825 59.069475 1.596472 6.385889 6.385889 12.771778 9.578834 17.561195-9.578834 1.596472-4.789417 11.175306-1.596472 19.157668l52.683586 225.102593 19.157667 76.63067c1.596472 7.982361 7.982361 14.368251 11.175306 22.350613-1.596472 1.596472-4.789417 6.385889-7.982361 14.36825h17.561195v3.192945c-4.789417 1.596472-7.982361 3.192945-14.368251 6.385889 11.175306 27.140029 7.982361 57.473003 28.736502 84.613032-7.982361 12.771778 1.596472 17.561195 14.36825 19.157667 7.982361 1.596472 15.964723 0 22.350612-1.596472 52.683586-11.175306 106.963644-23.947084 159.64723-36.718863 31.929446-7.982361 62.26242-14.368251 94.191865-22.350612 14.368251-3.192945 28.736501-11.175306 41.50828-11.175306 15.964723-1.596472 20.75414-9.578834 27.140029-27.140029-9.578834 4.789417-19.157668 6.385889-22.350612 11.175306-9.578834 14.368251-14.368251 7.982361-23.947085-4.789417 15.964723-3.192945 31.929446-7.982361 46.297697-11.175306 1.596472 11.175306 1.596472 17.561195 3.192945 27.140029 51.087113-12.771778 102.174227-23.947084 153.26134-35.12239 47.894169-11.175306 97.38481-22.350612 145.278979-33.525919 15.964723-3.192945 33.525918-3.192945 46.297696-11.175306 12.771778-7.982361 23.947084-9.578834 38.315335-11.175306 17.561195-1.596472 22.350612-4.789417 25.543557-25.543557-7.982361 3.192945-12.771778 7.982361-20.75414 12.771779-3.192945 1.596472-7.982361 4.789417-11.175306 4.789417-3.192945 0-6.385889-6.385889-6.385889-7.982362 0-3.192945 4.789417-6.385889 7.982361-7.982361 11.175306-3.192945 23.947084-4.789417 36.718863-7.982362 0 11.175306 0 19.157668-1.596472 27.140029 22.350612-4.789417 41.50828-9.578834 62.26242-14.36825 36.718863-9.578834 73.437726-17.561195 110.156588-27.140029 38.315335-7.982361 78.227142-15.964723 118.13895-25.543557 52.683586-11.175306 105.367171-23.947084 158.050757-36.718863 100.577755-22.350612 201.155509-44.701224 301.733264-68.648309 55.87653-12.771778 111.753061-30.332974 169.226063-44.701224 30.332974-6.385889 33.525918-11.175306 28.736501-33.525918z" fill="#6F8F8F" p-id="6081"></path><path d="M1503.876902 600.273583c19.157668-44.701224 31.929446-95.788338 39.911807-153.26134l-31.929446-7.982362c-7.982361 55.87653-22.350612 105.367171-41.508279 148.471924l33.525918 12.771778z" fill="#6F8F8F" p-id="6082"></path></svg>