<?xml version="1.0" standalone="no"?><!DOCTYPE svg PUBLIC "-//W3C//DTD SVG 1.1//EN" "http://www.w3.org/Graphics/SVG/1.1/DTD/svg11.dtd"><svg t="1637034587106" class="icon" viewBox="0 0 1024 1024" version="1.1" xmlns="http://www.w3.org/2000/svg" p-id="3878" xmlns:xlink="http://www.w3.org/1999/xlink" width="64" height="64"><defs><style type="text/css"></style></defs><path d="M126.85483749 434.28012396h241.79516964v79.44698451h-241.79516964V434.28012396z m0-155.43975131H669.16685977V358.28735638H126.85483749V278.84037265z m504.31563849 469.77347162c-62.17590068 0-113.98915137-51.81325069-113.9891506-117.4433683s51.81325069-117.44336752 113.9891506-117.4433675 113.98915137 51.81325069 113.98915137 117.4433675c0 62.17590068-51.81325069 117.44336752-113.98915137 117.4433683z m269.42890345 96.71806755l-107.0807183-110.53493445c20.72529997-31.08794996 31.08794996-65.6301176 31.08795072-107.08071754 0-107.08071754-86.35541757-193.4361351-189.98191895-193.43613588s-189.98191896 86.35541757-189.98191895 193.43613588c0 107.08071754 86.35541757 193.4361351 189.98191895 193.4361351 37.9963838 0 75.99276758-13.8168669 107.08071754-34.54216688l107.08071831 110.53493446 51.81325068-51.81325069zM126.85483749 123.40062057H669.16685977v79.4469845H126.85483749V123.40062057z" fill="#000333" p-id="3879"></path></svg>