<?xml version="1.0" standalone="no"?><!DOCTYPE svg PUBLIC "-//W3C//DTD SVG 1.1//EN" "http://www.w3.org/Graphics/SVG/1.1/DTD/svg11.dtd"><svg t="1637034643266" class="icon" viewBox="0 0 1024 1024" version="1.1" xmlns="http://www.w3.org/2000/svg" p-id="5040" xmlns:xlink="http://www.w3.org/1999/xlink" width="64" height="64"><defs><style type="text/css"></style></defs><path d="M316.612182 506.89701h387.827242v40.82392h-387.827242zM316.612182 350.405316h387.827242v40.82392h-387.827242zM316.612182 663.388704h387.827242v40.823921h-387.827242z" fill="#52BDBD" p-id="5041"></path><path d="M105.688594 517.10299c0-200.717608 149.687708-364.013289 343.601328-384.425249v85.049834l95.255814-54.431894 95.255814-54.431894-95.255814-54.431893-95.255814-54.431894v95.255814c-214.325581 20.41196-381.023256 200.717608-381.023255 418.445183 0 129.275748 57.833887 241.541528 149.687707 319.787375l23.813954-27.215947c-85.049834-64.637874-136.079734-170.099668-136.079734-289.169435zM952.784939 517.10299c0-119.069767-47.627907-224.531561-125.873754-299.375415l-27.215947 23.813953c71.44186 71.44186 119.069767 170.099668 119.069768 278.963455 0 200.717608-149.687708 364.013289-343.601329 384.42525v-88.451828l-88.451828 51.029901-88.451827 51.0299 88.451827 51.0299 88.451828 51.029901v-85.049834c210.923588-20.41196 377.621262-197.315615 377.621262-418.445183z" fill="#52BDBD" p-id="5042"></path></svg>