<?xml version="1.0" standalone="no"?><!DOCTYPE svg PUBLIC "-//W3C//DTD SVG 1.1//EN" "http://www.w3.org/Graphics/SVG/1.1/DTD/svg11.dtd"><svg t="1637034683453" class="icon" viewBox="0 0 1024 1024" version="1.1" xmlns="http://www.w3.org/2000/svg" p-id="6338" xmlns:xlink="http://www.w3.org/1999/xlink" width="64" height="64"><defs><style type="text/css"></style></defs><path d="M812.126208 641.024a15.702016 15.702016 0 0 0-15.716352 15.716352v68.151296c0 27.88352-22.595584 50.479104-50.479104 50.479104H223.09888c-27.88352 0-50.479104-22.595584-50.479104-50.479104V299.108352c0-27.88352 22.595584-50.479104 50.479104-50.479104h522.831872c27.88352 0 50.479104 22.595584 50.479104 50.479104v68.513792c0 8.691712 7.02464 15.716352 15.716352 15.716352s15.716352-7.02464 15.716352-15.716352v-68.513792c0-45.264896-36.646912-81.911808-81.911808-81.911808H223.09888c-45.264896 0-81.911808 36.646912-81.911808 81.911808v425.783296c0 45.264896 36.646912 81.911808 81.911808 81.911808h522.831872c45.264896 0 81.911808-36.646912 81.911808-81.911808v-68.151296a15.702016 15.702016 0 0 0-15.716352-15.716352z" p-id="6339"></path><path d="M819.949568 397.89568H582.324224c-34.619392 0-62.865408 28.172288-62.865408 62.865408v92.340224c0 34.619392 28.172288 62.865408 62.865408 62.865408h237.625344c34.619392 0 62.86336-28.172288 62.86336-62.865408V460.75904c0-34.691072-28.172288-62.86336-62.86336-62.86336z m31.430656 155.131904c0 17.309696-14.123008 31.432704-31.432704 31.432704H582.324224c-17.309696 0-31.432704-14.123008-31.432704-31.432704V460.75904c0-17.309696 14.123008-31.432704 31.432704-31.432704h237.625344c17.309696 0 31.432704 14.123008 31.432704 31.432704v92.268544z" p-id="6340"></path><path d="M632.369152 508.48768m-32.229376 0a32.229376 32.229376 0 1 0 64.458752 0 32.229376 32.229376 0 1 0-64.458752 0Z" p-id="6341"></path></svg>